<mxfile host="Electron" modified="2023-09-13T05:07:05.405Z" agent="Mozilla/5.0 (Windows NT 10.0; Win64; x64) AppleWebKit/537.36 (KHTML, like Gecko) draw.io/21.6.5 Chrome/114.0.5735.243 Electron/25.3.1 Safari/537.36" etag="boLQQYEqhz0M7beKjApr" version="21.6.5" type="device">
  <diagram name="Page-1" id="94oTzrTX2WplCVkyrWQ8">
    <mxGraphModel dx="1036" dy="606" grid="1" gridSize="10" guides="1" tooltips="1" connect="1" arrows="1" fold="1" page="1" pageScale="1" pageWidth="827" pageHeight="1169" math="0" shadow="0">
      <root>
        <mxCell id="0" />
        <mxCell id="1" parent="0" />
        <mxCell id="nDQ9shfb0dAtmsGH4goG-1" value="&lt;font style=&quot;font-size: 12px;&quot;&gt;User&lt;/font&gt;" style="shape=umlActor;verticalLabelPosition=bottom;verticalAlign=top;html=1;outlineConnect=0;labelBackgroundColor=none;labelBorderColor=none;fontSize=12;" parent="1" vertex="1">
          <mxGeometry x="30" y="50" width="30" height="60" as="geometry" />
        </mxCell>
        <mxCell id="nDQ9shfb0dAtmsGH4goG-2" value="" style="rounded=0;whiteSpace=wrap;html=1;labelBackgroundColor=none;labelBorderColor=none;fontSize=12;" parent="1" vertex="1">
          <mxGeometry x="150" y="50" width="120" height="60" as="geometry" />
        </mxCell>
        <mxCell id="nDQ9shfb0dAtmsGH4goG-3" value="" style="rounded=0;whiteSpace=wrap;html=1;labelBackgroundColor=none;labelBorderColor=none;fontSize=12;" parent="1" vertex="1">
          <mxGeometry x="340" y="50" width="120" height="60" as="geometry" />
        </mxCell>
        <mxCell id="nDQ9shfb0dAtmsGH4goG-4" value="" style="rounded=0;whiteSpace=wrap;html=1;labelBackgroundColor=none;labelBorderColor=none;fontSize=12;" parent="1" vertex="1">
          <mxGeometry x="510" y="50" width="120" height="60" as="geometry" />
        </mxCell>
        <mxCell id="nDQ9shfb0dAtmsGH4goG-5" value="" style="rounded=0;whiteSpace=wrap;html=1;labelBackgroundColor=none;labelBorderColor=none;fontSize=12;" parent="1" vertex="1">
          <mxGeometry x="680" y="50" width="120" height="60" as="geometry" />
        </mxCell>
        <mxCell id="nDQ9shfb0dAtmsGH4goG-6" value="" style="html=1;points=[];perimeter=orthogonalPerimeter;outlineConnect=0;targetShapes=umlLifeline;portConstraint=eastwest;newEdgeStyle={&quot;edgeStyle&quot;:&quot;elbowEdgeStyle&quot;,&quot;elbow&quot;:&quot;vertical&quot;,&quot;curved&quot;:0,&quot;rounded&quot;:0};labelBackgroundColor=none;labelBorderColor=none;fontSize=12;" parent="1" vertex="1">
          <mxGeometry x="205" y="200" width="10" height="100" as="geometry" />
        </mxCell>
        <mxCell id="nDQ9shfb0dAtmsGH4goG-7" value="" style="endArrow=none;dashed=1;html=1;rounded=0;entryX=0.5;entryY=1;entryDx=0;entryDy=0;labelBackgroundColor=none;labelBorderColor=none;fontSize=12;" parent="1" target="nDQ9shfb0dAtmsGH4goG-2" edge="1">
          <mxGeometry width="50" height="50" relative="1" as="geometry">
            <mxPoint x="209.44" y="200" as="sourcePoint" />
            <mxPoint x="209.44" y="140" as="targetPoint" />
            <Array as="points">
              <mxPoint x="209.44" y="200" />
            </Array>
          </mxGeometry>
        </mxCell>
        <mxCell id="nDQ9shfb0dAtmsGH4goG-13" value="" style="endArrow=none;dashed=1;html=1;rounded=0;labelBackgroundColor=none;labelBorderColor=none;fontSize=12;" parent="1" source="nDQ9shfb0dAtmsGH4goG-24" edge="1">
          <mxGeometry width="50" height="50" relative="1" as="geometry">
            <mxPoint x="399.44" y="200" as="sourcePoint" />
            <mxPoint x="399.44" y="110" as="targetPoint" />
          </mxGeometry>
        </mxCell>
        <mxCell id="nDQ9shfb0dAtmsGH4goG-15" value="" style="html=1;points=[];perimeter=orthogonalPerimeter;outlineConnect=0;targetShapes=umlLifeline;portConstraint=eastwest;newEdgeStyle={&quot;edgeStyle&quot;:&quot;elbowEdgeStyle&quot;,&quot;elbow&quot;:&quot;vertical&quot;,&quot;curved&quot;:0,&quot;rounded&quot;:0};labelBackgroundColor=none;labelBorderColor=none;fontSize=12;" parent="1" vertex="1">
          <mxGeometry x="40" y="140" width="10" height="560" as="geometry" />
        </mxCell>
        <mxCell id="nDQ9shfb0dAtmsGH4goG-17" value="" style="endArrow=classic;html=1;rounded=0;labelBackgroundColor=none;labelBorderColor=none;fontSize=12;" parent="1" target="nDQ9shfb0dAtmsGH4goG-6" edge="1">
          <mxGeometry width="50" height="50" relative="1" as="geometry">
            <mxPoint x="50" y="220" as="sourcePoint" />
            <mxPoint x="190" y="220" as="targetPoint" />
          </mxGeometry>
        </mxCell>
        <mxCell id="nDQ9shfb0dAtmsGH4goG-18" value="" style="endArrow=classic;html=1;rounded=0;labelBackgroundColor=none;labelBorderColor=none;fontSize=12;" parent="1" target="nDQ9shfb0dAtmsGH4goG-6" edge="1">
          <mxGeometry width="50" height="50" relative="1" as="geometry">
            <mxPoint x="50" y="278.89" as="sourcePoint" />
            <mxPoint x="180" y="278.89" as="targetPoint" />
          </mxGeometry>
        </mxCell>
        <mxCell id="nDQ9shfb0dAtmsGH4goG-19" value="&lt;font style=&quot;font-size: 12px;&quot;&gt;System Access&lt;/font&gt;" style="html=1;verticalAlign=bottom;endArrow=open;dashed=1;endSize=8;edgeStyle=elbowEdgeStyle;elbow=vertical;curved=0;rounded=0;labelBackgroundColor=none;labelBorderColor=none;fontSize=12;" parent="1" edge="1">
          <mxGeometry relative="1" as="geometry">
            <mxPoint x="205" y="250.32999999999998" as="sourcePoint" />
            <mxPoint x="50" y="250.44111111111107" as="targetPoint" />
          </mxGeometry>
        </mxCell>
        <mxCell id="nDQ9shfb0dAtmsGH4goG-20" value="" style="html=1;points=[];perimeter=orthogonalPerimeter;outlineConnect=0;targetShapes=umlLifeline;portConstraint=eastwest;newEdgeStyle={&quot;edgeStyle&quot;:&quot;elbowEdgeStyle&quot;,&quot;elbow&quot;:&quot;vertical&quot;,&quot;curved&quot;:0,&quot;rounded&quot;:0};labelBackgroundColor=none;labelBorderColor=none;fontSize=12;" parent="1" vertex="1">
          <mxGeometry x="205" y="370" width="10" height="60" as="geometry" />
        </mxCell>
        <mxCell id="nDQ9shfb0dAtmsGH4goG-21" value="" style="endArrow=none;dashed=1;html=1;rounded=0;labelBackgroundColor=none;labelBorderColor=none;fontSize=12;" parent="1" edge="1">
          <mxGeometry width="50" height="50" relative="1" as="geometry">
            <mxPoint x="209.44" y="370" as="sourcePoint" />
            <mxPoint x="209.44" y="300" as="targetPoint" />
          </mxGeometry>
        </mxCell>
        <mxCell id="nDQ9shfb0dAtmsGH4goG-22" value="&lt;font style=&quot;font-size: 12px;&quot;&gt;List of offers&lt;/font&gt;" style="html=1;verticalAlign=bottom;endArrow=open;dashed=1;endSize=8;edgeStyle=elbowEdgeStyle;elbow=vertical;curved=0;rounded=0;labelBackgroundColor=none;labelBorderColor=none;fontSize=12;" parent="1" edge="1">
          <mxGeometry relative="1" as="geometry">
            <mxPoint x="205" y="390.21999999999997" as="sourcePoint" />
            <mxPoint x="50" y="390.33111111111106" as="targetPoint" />
          </mxGeometry>
        </mxCell>
        <mxCell id="nDQ9shfb0dAtmsGH4goG-23" value="" style="endArrow=classic;html=1;rounded=0;labelBackgroundColor=none;labelBorderColor=none;fontSize=12;" parent="1" edge="1">
          <mxGeometry width="50" height="50" relative="1" as="geometry">
            <mxPoint x="50" y="415" as="sourcePoint" />
            <mxPoint x="205" y="415.11" as="targetPoint" />
          </mxGeometry>
        </mxCell>
        <mxCell id="nDQ9shfb0dAtmsGH4goG-24" value="" style="html=1;points=[];perimeter=orthogonalPerimeter;outlineConnect=0;targetShapes=umlLifeline;portConstraint=eastwest;newEdgeStyle={&quot;edgeStyle&quot;:&quot;elbowEdgeStyle&quot;,&quot;elbow&quot;:&quot;vertical&quot;,&quot;curved&quot;:0,&quot;rounded&quot;:0};labelBackgroundColor=none;labelBorderColor=none;fontSize=12;" parent="1" vertex="1">
          <mxGeometry x="395" y="280" width="10" height="80" as="geometry" />
        </mxCell>
        <mxCell id="nDQ9shfb0dAtmsGH4goG-25" value="" style="endArrow=classic;html=1;rounded=0;labelBackgroundColor=none;labelBorderColor=none;fontSize=12;" parent="1" target="nDQ9shfb0dAtmsGH4goG-24" edge="1">
          <mxGeometry width="50" height="50" relative="1" as="geometry">
            <mxPoint x="210" y="310" as="sourcePoint" />
            <mxPoint x="390" y="310" as="targetPoint" />
          </mxGeometry>
        </mxCell>
        <mxCell id="nDQ9shfb0dAtmsGH4goG-26" value="List Of Product" style="html=1;verticalAlign=bottom;endArrow=open;dashed=1;endSize=8;edgeStyle=elbowEdgeStyle;elbow=vertical;curved=0;rounded=0;labelBackgroundColor=none;labelBorderColor=none;fontSize=12;" parent="1" edge="1">
          <mxGeometry x="0.0269" relative="1" as="geometry">
            <mxPoint x="395" y="340" as="sourcePoint" />
            <mxPoint x="210" y="340" as="targetPoint" />
            <mxPoint as="offset" />
          </mxGeometry>
        </mxCell>
        <mxCell id="nDQ9shfb0dAtmsGH4goG-30" value="" style="html=1;points=[];perimeter=orthogonalPerimeter;outlineConnect=0;targetShapes=umlLifeline;portConstraint=eastwest;newEdgeStyle={&quot;edgeStyle&quot;:&quot;elbowEdgeStyle&quot;,&quot;elbow&quot;:&quot;vertical&quot;,&quot;curved&quot;:0,&quot;rounded&quot;:0};labelBackgroundColor=none;labelBorderColor=none;fontSize=12;" parent="1" vertex="1">
          <mxGeometry x="395" y="430" width="10" height="40" as="geometry" />
        </mxCell>
        <mxCell id="nDQ9shfb0dAtmsGH4goG-31" value="" style="endArrow=none;dashed=1;html=1;rounded=0;labelBackgroundColor=none;labelBorderColor=none;fontSize=12;" parent="1" source="nDQ9shfb0dAtmsGH4goG-30" edge="1">
          <mxGeometry width="50" height="50" relative="1" as="geometry">
            <mxPoint x="399" y="400" as="sourcePoint" />
            <mxPoint x="399" y="360" as="targetPoint" />
          </mxGeometry>
        </mxCell>
        <mxCell id="nDQ9shfb0dAtmsGH4goG-32" value="" style="endArrow=none;dashed=1;html=1;rounded=0;exitX=0.495;exitY=0.658;exitDx=0;exitDy=0;exitPerimeter=0;labelBackgroundColor=none;labelBorderColor=none;fontSize=12;" parent="1" source="nDQ9shfb0dAtmsGH4goG-51" target="nDQ9shfb0dAtmsGH4goG-20" edge="1">
          <mxGeometry width="50" height="50" relative="1" as="geometry">
            <mxPoint x="209.44" y="620" as="sourcePoint" />
            <mxPoint x="209.88" y="450" as="targetPoint" />
          </mxGeometry>
        </mxCell>
        <mxCell id="nDQ9shfb0dAtmsGH4goG-33" value="" style="endArrow=none;dashed=1;html=1;rounded=0;labelBackgroundColor=none;labelBorderColor=none;fontSize=12;" parent="1" source="nDQ9shfb0dAtmsGH4goG-36" edge="1">
          <mxGeometry width="50" height="50" relative="1" as="geometry">
            <mxPoint x="570" y="480" as="sourcePoint" />
            <mxPoint x="569.88" y="110" as="targetPoint" />
          </mxGeometry>
        </mxCell>
        <mxCell id="nDQ9shfb0dAtmsGH4goG-37" value="" style="endArrow=none;dashed=1;html=1;rounded=0;labelBackgroundColor=none;labelBorderColor=none;fontSize=12;" parent="1" source="nDQ9shfb0dAtmsGH4goG-38" edge="1">
          <mxGeometry width="50" height="50" relative="1" as="geometry">
            <mxPoint x="739" y="560" as="sourcePoint" />
            <mxPoint x="739.44" y="110" as="targetPoint" />
          </mxGeometry>
        </mxCell>
        <mxCell id="nDQ9shfb0dAtmsGH4goG-38" value="" style="html=1;points=[];perimeter=orthogonalPerimeter;outlineConnect=0;targetShapes=umlLifeline;portConstraint=eastwest;newEdgeStyle={&quot;edgeStyle&quot;:&quot;elbowEdgeStyle&quot;,&quot;elbow&quot;:&quot;vertical&quot;,&quot;curved&quot;:0,&quot;rounded&quot;:0};labelBackgroundColor=none;labelBorderColor=none;fontSize=12;" parent="1" vertex="1">
          <mxGeometry x="735" y="590" width="10" height="50" as="geometry" />
        </mxCell>
        <mxCell id="nDQ9shfb0dAtmsGH4goG-40" value="" style="endArrow=none;dashed=1;html=1;rounded=0;exitX=0.527;exitY=0.411;exitDx=0;exitDy=0;exitPerimeter=0;labelBackgroundColor=none;labelBorderColor=none;fontSize=12;" parent="1" source="nDQ9shfb0dAtmsGH4goG-41" edge="1">
          <mxGeometry width="50" height="50" relative="1" as="geometry">
            <mxPoint x="739.44" y="710" as="sourcePoint" />
            <mxPoint x="739.44" y="640" as="targetPoint" />
          </mxGeometry>
        </mxCell>
        <mxCell id="nDQ9shfb0dAtmsGH4goG-41" value="" style="shape=umlDestroy;whiteSpace=wrap;html=1;strokeWidth=3;targetShapes=umlLifeline;labelBackgroundColor=none;labelBorderColor=none;fontSize=12;" parent="1" vertex="1">
          <mxGeometry x="725" y="730" width="30" height="30" as="geometry" />
        </mxCell>
        <mxCell id="nDQ9shfb0dAtmsGH4goG-42" value="" style="endArrow=none;dashed=1;html=1;rounded=0;labelBackgroundColor=none;labelBorderColor=none;fontSize=12;" parent="1" source="nDQ9shfb0dAtmsGH4goG-43" target="nDQ9shfb0dAtmsGH4goG-36" edge="1">
          <mxGeometry width="50" height="50" relative="1" as="geometry">
            <mxPoint x="570" y="610" as="sourcePoint" />
            <mxPoint x="569.44" y="560" as="targetPoint" />
          </mxGeometry>
        </mxCell>
        <mxCell id="nDQ9shfb0dAtmsGH4goG-43" value="" style="html=1;points=[];perimeter=orthogonalPerimeter;outlineConnect=0;targetShapes=umlLifeline;portConstraint=eastwest;newEdgeStyle={&quot;edgeStyle&quot;:&quot;elbowEdgeStyle&quot;,&quot;elbow&quot;:&quot;vertical&quot;,&quot;curved&quot;:0,&quot;rounded&quot;:0};labelBackgroundColor=none;labelBorderColor=none;fontSize=12;" parent="1" vertex="1">
          <mxGeometry x="565" y="630" width="10" height="20" as="geometry" />
        </mxCell>
        <mxCell id="nDQ9shfb0dAtmsGH4goG-46" value="" style="endArrow=none;dashed=1;html=1;rounded=0;exitX=0.487;exitY=0.411;exitDx=0;exitDy=0;exitPerimeter=0;labelBackgroundColor=none;labelBorderColor=none;fontSize=12;" parent="1" source="nDQ9shfb0dAtmsGH4goG-45" target="nDQ9shfb0dAtmsGH4goG-43" edge="1">
          <mxGeometry width="50" height="50" relative="1" as="geometry">
            <mxPoint x="570" y="700" as="sourcePoint" />
            <mxPoint x="569.44" y="650" as="targetPoint" />
          </mxGeometry>
        </mxCell>
        <mxCell id="nDQ9shfb0dAtmsGH4goG-45" value="" style="shape=umlDestroy;whiteSpace=wrap;html=1;strokeWidth=3;targetShapes=umlLifeline;labelBackgroundColor=none;labelBorderColor=none;fontSize=12;" parent="1" vertex="1">
          <mxGeometry x="555" y="730" width="30" height="30" as="geometry" />
        </mxCell>
        <mxCell id="nDQ9shfb0dAtmsGH4goG-47" value="" style="endArrow=none;dashed=1;html=1;rounded=0;exitX=0.518;exitY=0.5;exitDx=0;exitDy=0;exitPerimeter=0;labelBackgroundColor=none;labelBorderColor=none;fontSize=12;" parent="1" source="nDQ9shfb0dAtmsGH4goG-50" target="nDQ9shfb0dAtmsGH4goG-30" edge="1">
          <mxGeometry width="50" height="50" relative="1" as="geometry">
            <mxPoint x="399.67" y="680" as="sourcePoint" />
            <mxPoint x="399.55" y="480" as="targetPoint" />
          </mxGeometry>
        </mxCell>
        <mxCell id="nDQ9shfb0dAtmsGH4goG-50" value="" style="shape=umlDestroy;whiteSpace=wrap;html=1;strokeWidth=3;targetShapes=umlLifeline;labelBackgroundColor=none;labelBorderColor=none;fontSize=12;" parent="1" vertex="1">
          <mxGeometry x="385" y="730" width="30" height="30" as="geometry" />
        </mxCell>
        <mxCell id="nDQ9shfb0dAtmsGH4goG-51" value="" style="shape=umlDestroy;whiteSpace=wrap;html=1;strokeWidth=3;targetShapes=umlLifeline;labelBackgroundColor=none;labelBorderColor=none;fontSize=12;" parent="1" vertex="1">
          <mxGeometry x="195" y="730" width="30" height="30" as="geometry" />
        </mxCell>
        <mxCell id="nDQ9shfb0dAtmsGH4goG-53" value="" style="endArrow=none;dashed=1;html=1;rounded=0;labelBackgroundColor=none;labelBorderColor=none;fontSize=12;" parent="1" edge="1">
          <mxGeometry width="50" height="50" relative="1" as="geometry">
            <mxPoint x="45" y="740" as="sourcePoint" />
            <mxPoint x="44.74000000000005" y="700" as="targetPoint" />
          </mxGeometry>
        </mxCell>
        <mxCell id="nDQ9shfb0dAtmsGH4goG-55" value="" style="shape=umlDestroy;whiteSpace=wrap;html=1;strokeWidth=3;targetShapes=umlLifeline;labelBackgroundColor=none;labelBorderColor=none;fontSize=12;" parent="1" vertex="1">
          <mxGeometry x="30" y="730" width="30" height="30" as="geometry" />
        </mxCell>
        <mxCell id="nDQ9shfb0dAtmsGH4goG-56" value="" style="endArrow=classic;html=1;rounded=0;startSize=6;labelBackgroundColor=none;labelBorderColor=none;fontSize=12;" parent="1" edge="1">
          <mxGeometry width="50" height="50" relative="1" as="geometry">
            <mxPoint x="210" y="690" as="sourcePoint" />
            <mxPoint x="50" y="690" as="targetPoint" />
          </mxGeometry>
        </mxCell>
        <mxCell id="nDQ9shfb0dAtmsGH4goG-57" value="" style="endArrow=classic;html=1;rounded=0;labelBackgroundColor=none;labelBorderColor=none;fontSize=12;" parent="1" edge="1">
          <mxGeometry width="50" height="50" relative="1" as="geometry">
            <mxPoint x="50" y="648.89" as="sourcePoint" />
            <mxPoint x="565" y="648.89" as="targetPoint" />
          </mxGeometry>
        </mxCell>
        <mxCell id="nDQ9shfb0dAtmsGH4goG-59" value="Website" style="text;html=1;strokeColor=none;fillColor=none;align=center;verticalAlign=middle;whiteSpace=wrap;rounded=0;labelBackgroundColor=none;labelBorderColor=none;fontSize=12;" parent="1" vertex="1">
          <mxGeometry x="180" y="65" width="60" height="30" as="geometry" />
        </mxCell>
        <mxCell id="nDQ9shfb0dAtmsGH4goG-61" value="Product Database" style="text;html=1;strokeColor=none;fillColor=none;align=center;verticalAlign=middle;whiteSpace=wrap;rounded=0;labelBackgroundColor=none;labelBorderColor=none;fontSize=12;" parent="1" vertex="1">
          <mxGeometry x="370" y="65" width="60" height="30" as="geometry" />
        </mxCell>
        <mxCell id="nDQ9shfb0dAtmsGH4goG-62" value="Order Detail" style="text;html=1;strokeColor=none;fillColor=none;align=center;verticalAlign=middle;whiteSpace=wrap;rounded=0;labelBackgroundColor=none;labelBorderColor=none;fontSize=12;" parent="1" vertex="1">
          <mxGeometry x="540" y="65" width="60" height="30" as="geometry" />
        </mxCell>
        <mxCell id="nDQ9shfb0dAtmsGH4goG-63" value="Purchase&lt;br style=&quot;font-size: 12px;&quot;&gt;Product" style="text;html=1;strokeColor=none;fillColor=none;align=center;verticalAlign=middle;whiteSpace=wrap;rounded=0;labelBackgroundColor=none;labelBorderColor=none;fontSize=12;" parent="1" vertex="1">
          <mxGeometry x="710" y="60" width="60" height="40" as="geometry" />
        </mxCell>
        <mxCell id="nDQ9shfb0dAtmsGH4goG-64" value="Registration/Login&amp;nbsp;" style="text;html=1;strokeColor=none;fillColor=none;align=center;verticalAlign=middle;whiteSpace=wrap;rounded=0;labelBackgroundColor=none;labelBorderColor=none;fontSize=12;" parent="1" vertex="1">
          <mxGeometry x="100" y="190" width="60" height="30" as="geometry" />
        </mxCell>
        <mxCell id="nDQ9shfb0dAtmsGH4goG-66" value="Registration/Login&amp;nbsp;" style="text;html=1;strokeColor=none;fillColor=none;align=center;verticalAlign=middle;whiteSpace=wrap;rounded=0;labelBackgroundColor=none;labelBorderColor=none;fontSize=12;" parent="1" vertex="1">
          <mxGeometry x="100" y="250" width="60" height="30" as="geometry" />
        </mxCell>
        <mxCell id="nDQ9shfb0dAtmsGH4goG-67" value="Search Product" style="text;html=1;strokeColor=none;fillColor=none;align=center;verticalAlign=middle;whiteSpace=wrap;rounded=0;labelBackgroundColor=none;labelBorderColor=none;fontSize=12;" parent="1" vertex="1">
          <mxGeometry x="270" y="280" width="60" height="30" as="geometry" />
        </mxCell>
        <mxCell id="mG0SxsyCR1Pl45_1437--1" value="choose item" style="text;html=1;align=center;verticalAlign=middle;resizable=0;points=[];autosize=1;strokeColor=none;fillColor=none;labelBackgroundColor=none;labelBorderColor=none;fontSize=12;" parent="1" vertex="1">
          <mxGeometry x="85" y="391" width="90" height="30" as="geometry" />
        </mxCell>
        <mxCell id="mG0SxsyCR1Pl45_1437--2" value="" style="endArrow=classic;html=1;rounded=0;labelBackgroundColor=none;labelBorderColor=none;fontSize=12;" parent="1" edge="1">
          <mxGeometry width="50" height="50" relative="1" as="geometry">
            <mxPoint x="210" y="450" as="sourcePoint" />
            <mxPoint x="395" y="450" as="targetPoint" />
          </mxGeometry>
        </mxCell>
        <mxCell id="mG0SxsyCR1Pl45_1437--3" value="&lt;font style=&quot;font-size: 12px;&quot;&gt;&lt;font style=&quot;font-size: 12px;&quot;&gt;Process&lt;/font&gt;ing&lt;/font&gt;" style="edgeLabel;html=1;align=center;verticalAlign=middle;resizable=0;points=[];labelBackgroundColor=none;labelBorderColor=none;fontSize=12;" parent="mG0SxsyCR1Pl45_1437--2" vertex="1" connectable="0">
          <mxGeometry x="-0.2877" y="3" relative="1" as="geometry">
            <mxPoint x="28" y="-7" as="offset" />
          </mxGeometry>
        </mxCell>
        <mxCell id="mG0SxsyCR1Pl45_1437--4" value="" style="endArrow=classic;html=1;rounded=0;entryX=0.5;entryY=0.25;entryDx=0;entryDy=0;entryPerimeter=0;labelBackgroundColor=none;labelBorderColor=none;fontSize=12;" parent="1" edge="1">
          <mxGeometry width="50" height="50" relative="1" as="geometry">
            <mxPoint x="398" y="480" as="sourcePoint" />
            <mxPoint x="565" y="479.9999999999999" as="targetPoint" />
          </mxGeometry>
        </mxCell>
        <mxCell id="mG0SxsyCR1Pl45_1437--5" value="&lt;font style=&quot;font-size: 12px;&quot;&gt;Add to&amp;nbsp; cart&lt;/font&gt;" style="edgeLabel;html=1;align=center;verticalAlign=middle;resizable=0;points=[];labelBackgroundColor=none;labelBorderColor=none;fontSize=12;" parent="mG0SxsyCR1Pl45_1437--4" vertex="1" connectable="0">
          <mxGeometry x="-0.2877" y="3" relative="1" as="geometry">
            <mxPoint x="28" y="-7" as="offset" />
          </mxGeometry>
        </mxCell>
        <mxCell id="mG0SxsyCR1Pl45_1437--6" value="" style="endArrow=none;dashed=1;html=1;rounded=0;labelBackgroundColor=none;labelBorderColor=none;fontSize=12;" parent="1" target="nDQ9shfb0dAtmsGH4goG-36" edge="1">
          <mxGeometry width="50" height="50" relative="1" as="geometry">
            <mxPoint x="570" y="480" as="sourcePoint" />
            <mxPoint x="569.88" y="110" as="targetPoint" />
          </mxGeometry>
        </mxCell>
        <mxCell id="nDQ9shfb0dAtmsGH4goG-36" value="" style="html=1;points=[];perimeter=orthogonalPerimeter;outlineConnect=0;targetShapes=umlLifeline;portConstraint=eastwest;newEdgeStyle={&quot;edgeStyle&quot;:&quot;elbowEdgeStyle&quot;,&quot;elbow&quot;:&quot;vertical&quot;,&quot;curved&quot;:0,&quot;rounded&quot;:0};labelBackgroundColor=none;labelBorderColor=none;fontSize=12;" parent="1" vertex="1">
          <mxGeometry x="565" y="460" width="10" height="80" as="geometry" />
        </mxCell>
        <mxCell id="mG0SxsyCR1Pl45_1437--7" value="&lt;font style=&quot;font-size: 12px;&quot;&gt;Product details&lt;/font&gt;" style="html=1;verticalAlign=bottom;endArrow=open;dashed=1;endSize=8;edgeStyle=elbowEdgeStyle;elbow=vertical;curved=0;rounded=0;labelBackgroundColor=none;labelBorderColor=none;fontSize=12;" parent="1" target="nDQ9shfb0dAtmsGH4goG-15" edge="1">
          <mxGeometry relative="1" as="geometry">
            <mxPoint x="740" y="550" as="sourcePoint" />
            <mxPoint x="210" y="550" as="targetPoint" />
          </mxGeometry>
        </mxCell>
        <mxCell id="mG0SxsyCR1Pl45_1437--8" value="" style="endArrow=classic;html=1;rounded=0;labelBackgroundColor=none;labelBorderColor=none;fontSize=12;" parent="1" source="nDQ9shfb0dAtmsGH4goG-15" edge="1">
          <mxGeometry width="50" height="50" relative="1" as="geometry">
            <mxPoint x="210" y="570" as="sourcePoint" />
            <mxPoint x="740" y="570" as="targetPoint" />
          </mxGeometry>
        </mxCell>
        <mxCell id="mG0SxsyCR1Pl45_1437--11" value="Make order" style="text;strokeColor=none;align=center;fillColor=none;html=1;verticalAlign=middle;whiteSpace=wrap;rounded=0;labelBackgroundColor=none;labelBorderColor=none;fontSize=12;" parent="1" vertex="1">
          <mxGeometry x="450" y="540" width="64" height="44" as="geometry" />
        </mxCell>
        <mxCell id="mG0SxsyCR1Pl45_1437--12" value="" style="endArrow=classic;html=1;rounded=0;labelBackgroundColor=none;labelBorderColor=none;fontSize=12;" parent="1" source="nDQ9shfb0dAtmsGH4goG-15" edge="1">
          <mxGeometry width="50" height="50" relative="1" as="geometry">
            <mxPoint x="210" y="600" as="sourcePoint" />
            <mxPoint x="735" y="600" as="targetPoint" />
          </mxGeometry>
        </mxCell>
        <mxCell id="mG0SxsyCR1Pl45_1437--13" value="Make payment" style="text;html=1;align=center;verticalAlign=middle;resizable=0;points=[];autosize=1;strokeColor=none;fillColor=none;labelBackgroundColor=none;labelBorderColor=none;fontSize=12;" parent="1" vertex="1">
          <mxGeometry x="430" y="570" width="100" height="30" as="geometry" />
        </mxCell>
        <mxCell id="mG0SxsyCR1Pl45_1437--15" value="&lt;font style=&quot;font-size: 12px;&quot;&gt;Payment &amp;amp; delivery details&lt;/font&gt;" style="html=1;verticalAlign=bottom;endArrow=open;dashed=1;endSize=8;edgeStyle=elbowEdgeStyle;elbow=vertical;curved=0;rounded=0;entryX=1.305;entryY=0.865;entryDx=0;entryDy=0;entryPerimeter=0;labelBackgroundColor=none;labelBorderColor=none;fontSize=12;" parent="1" source="nDQ9shfb0dAtmsGH4goG-38" target="nDQ9shfb0dAtmsGH4goG-15" edge="1">
          <mxGeometry relative="1" as="geometry">
            <mxPoint x="730" y="620" as="sourcePoint" />
            <mxPoint x="210" y="620" as="targetPoint" />
          </mxGeometry>
        </mxCell>
        <mxCell id="mG0SxsyCR1Pl45_1437--20" value="Place Order" style="text;html=1;strokeColor=none;fillColor=none;align=center;verticalAlign=middle;whiteSpace=wrap;rounded=0;labelBackgroundColor=none;labelBorderColor=none;fontSize=12;" parent="1" vertex="1">
          <mxGeometry x="280" y="625" width="80" height="30" as="geometry" />
        </mxCell>
        <mxCell id="mG0SxsyCR1Pl45_1437--22" value="Logout" style="text;html=1;strokeColor=none;fillColor=none;align=center;verticalAlign=middle;whiteSpace=wrap;rounded=0;labelBackgroundColor=none;labelBorderColor=none;fontSize=12;" parent="1" vertex="1">
          <mxGeometry x="100" y="666" width="60" height="30" as="geometry" />
        </mxCell>
      </root>
    </mxGraphModel>
  </diagram>
</mxfile>
